<?xml version="1.0" encoding="UTF-8"?>
<svg width="777px" height="733px" xmlns="http://www.w3.org/2000/svg" version="1.0" xmlns:xlink="http://www.w3.org/1999/xlink">

<g fill="#009900" stroke="black" stroke-width="10" stroke-linecap="round" stroke-linejoin="round">
<path d="M280 272  C134 187 134 187 134 187  C210 54 210 54 210 54  C231 17 309 16 336 48  C373 110 373 110 373 110z"/>
<path d="M162 475  C84 475 84 475 84 475  C54 471.75 4 410 34 354  C68 297 68 297 68 297  C15 266 15 266 15 266  C183 266 183 266 183 266  C268 412 268 412 268 412  C215 383 215 383 215 383z"/>
<path d="M363 496  C363 667 363 667 363 667  C176 667 176 667 176 667  C165 668 157 657 151 648  C63 492 64 493 60 488  C64.75 492 70 496 85 496z"/>
<path d="M687 496  C706 494 709 489 714 486  C620 652 620 652 620 652  C616 660 608 667 596 667  C492 667 492 667 492 667  C492 728 492 728 492 728  C407 583 407 583 407 583  C492 437 492 437 492 437  C492 496 492 496 492 496z"/>
<path d="M519 315  C666 231 666 231 666 231  C743 362 743 362 743 362  C771 416 723 468 691 474  C612 474 612 474 612 474z"/>
<path d="M357 35  C351 27 339 17 328 15  C525 15 525 15 525 15  C536 15 546 19 551 28  C602 118 602 118 602 118  C653 89 653 89 653 89  C570 233 570 233 570 233  C404 233 404 233 404 233  C454 203 454 203 454 203z"/>
</g>

</svg>