<?xml version="1.0" encoding="UTF-8" standalone="no"?>
<!-- Created with Inkscape (http://www.inkscape.org/) -->
<svg xmlns:dc="http://purl.org/dc/elements/1.1/" xmlns:cc="http://creativecommons.org/ns#" xmlns:rdf="http://www.w3.org/1999/02/22-rdf-syntax-ns#" xmlns:svg="http://www.w3.org/2000/svg" xmlns="http://www.w3.org/2000/svg" xmlns:xlink="http://www.w3.org/1999/xlink" xmlns:sodipodi="http://sodipodi.sourceforge.net/DTD/sodipodi-0.dtd" xmlns:inkscape="http://www.inkscape.org/namespaces/inkscape" width="32px" height="30.577092581279px" id="svg3044" version="1.1" inkscape:version="0.48.0 r9654" sodipodi:docname="car.svg" viewBox="0 0 111.59686 106.63461">
  <defs id="defs3046">
    <linearGradient inkscape:collect="always" id="linearGradient3843">
      <stop style="stop-color:#000000;stop-opacity:1;" offset="0" id="stop3845"/>
      <stop style="stop-color:#000000;stop-opacity:0;" offset="1" id="stop3847"/>
    </linearGradient>
    <radialGradient inkscape:collect="always" xlink:href="#linearGradient3843" id="radialGradient3849" cx="346.2406" cy="247.85091" fx="346.2406" fy="247.85091" r="44.836842" gradientTransform="matrix(1,0,0,0.20346116,0,197.42287)" gradientUnits="userSpaceOnUse"/>
  </defs>
  <sodipodi:namedview id="base" pagecolor="#ffffff" bordercolor="#666666" borderopacity="1.0" inkscape:pageopacity="0.0" inkscape:pageshadow="2" inkscape:zoom="1.33" inkscape:cx="90.658776" inkscape:cy="38.045115" inkscape:document-units="px" inkscape:current-layer="layer2" showgrid="false" inkscape:window-width="1028" inkscape:window-height="739" inkscape:window-x="539" inkscape:window-y="72" inkscape:window-maximized="0" fit-margin-top="0" fit-margin-left="0" fit-margin-right="0" fit-margin-bottom="0"/>
  <metadata id="metadata3049">
    <rdf:RDF>
      <cc:Work rdf:about="">
        <dc:format>image/svg+xml</dc:format>
        <dc:type rdf:resource="http://purl.org/dc/dcmitype/StillImage"/>
        <dc:title/>
      </cc:Work>
    </rdf:RDF>
  </metadata>
  <g inkscape:label="Layer 1" inkscape:groupmode="layer" id="layer1" transform="translate(-287.66021,-120.91554)">
    <path sodipodi:type="arc" style="fill:url(#radialGradient3849);fill-opacity:1;stroke:none" id="path3073" sodipodi:cx="346.2406" sodipodi:cy="247.85091" sodipodi:rx="44.736843" sodipodi:ry="9.0225563" d="m 390.97744,247.85091 a 44.736843,9.0225563 0 1 1 -89.47368,0 44.736843,9.0225563 0 1 1 89.47368,0 z" transform="matrix(0.83156343,0,0,0.63894689,55.227399,55.902857)"/>
  </g>
  <g inkscape:groupmode="layer" id="layer2" inkscape:label="Layer" transform="translate(-287.66021,-120.91554)">
    <g transform="matrix(0.5486578,0,0,0.6324658,192.70422,129.18622)" id="g59">
      <path style="fill:#5a8e22" inkscape:connector-curvature="0" d="m 361.394,74.909 c 0,-13.729 -10.451,-24.972 -23.356,-25.373 L 313.53,3.063 C 312.642,1.38 310.421,0 308.593,0 H 240.95 c -1.824,0 -4.044,1.38 -4.933,3.063 l -24.512,46.473 c -12.908,0.401 -23.361,11.645 -23.361,25.373 v 36.438 h 12.603 c -0.117,0.523 -0.191,1.058 -0.191,1.608 v 14.329 c 0,5.469 5.936,9.895 13.264,9.895 7.312,0 13.251,-4.426 13.251,-9.895 v -14.329 c 0,-0.551 -0.075,-1.085 -0.194,-1.608 h 94.212 c -0.113,0.523 -0.187,1.058 -0.187,1.608 v 14.329 c 0,5.469 5.929,9.895 13.255,9.895 7.315,0 13.245,-4.426 13.245,-9.895 v -14.329 c 0,-0.551 -0.073,-1.085 -0.188,-1.608 h 14.181 M 242.412,15.196 c 0.888,-1.684 3.104,-3.062 4.935,-3.062 h 54.851 c 1.828,0 4.05,1.378 4.938,3.062 L 325.229,49.5 H 224.314 l 18.098,-34.304 z m -23.086,75.678 c -7.134,0 -12.916,-4.774 -12.916,-10.664 0,-5.888 5.782,-10.662 12.916,-10.662 7.133,0 12.915,4.774 12.915,10.662 0,5.89 -5.782,10.664 -12.915,10.664 m 113.777,0 c -7.133,0 -12.915,-4.774 -12.915,-10.664 0,-5.888 5.782,-10.662 12.915,-10.662 7.136,0 12.914,4.774 12.914,10.662 0,5.89 -5.778,10.664 -12.914,10.664" id="path61"/>
    </g>
  </g>
</svg>
