<?xml version="1.0" encoding="UTF-8" standalone="no"?>
<!-- Created with Inkscape (http://www.inkscape.org/) -->

<svg
   xmlns:dc="http://purl.org/dc/elements/1.1/"
   xmlns:cc="http://creativecommons.org/ns#"
   xmlns:rdf="http://www.w3.org/1999/02/22-rdf-syntax-ns#"
   xmlns:svg="http://www.w3.org/2000/svg"
   xmlns="http://www.w3.org/2000/svg"
   xmlns:sodipodi="http://sodipodi.sourceforge.net/DTD/sodipodi-0.dtd"
   xmlns:inkscape="http://www.inkscape.org/namespaces/inkscape"
   width="726.90002"
   height="727.90997"
   id="svg2"
   version="1.1"
   inkscape:version="0.48.0 r9654"
   sodipodi:docname="agia_hotelinformation_inv.svg">
  <defs
     id="defs4">
    <clipPath
       id="Clip0">
      <path
         id="path2990"
         transform="translate(180.5,96.25)"
         d="m 0,0 579.937,0 0,580.935 L 0,580.935 0,0 z"
         inkscape:connector-curvature="0" />
    </clipPath>
  </defs>
  <sodipodi:namedview
     id="base"
     pagecolor="#ffffff"
     bordercolor="#666666"
     borderopacity="1.0"
     inkscape:pageopacity="0.0"
     inkscape:pageshadow="2"
     inkscape:zoom="0.35"
     inkscape:cx="370.87112"
     inkscape:cy="285.82046"
     inkscape:document-units="px"
     inkscape:current-layer="layer1"
     showgrid="false"
     fit-margin-top="2"
     fit-margin-left="2"
     fit-margin-right="0"
     fit-margin-bottom="0"
     inkscape:window-width="642"
     inkscape:window-height="649"
     inkscape:window-x="56"
     inkscape:window-y="211"
     inkscape:window-maximized="0" />
  <metadata
     id="metadata7">
    <rdf:RDF>
      <cc:Work
         rdf:about="">
        <dc:format>image/svg+xml</dc:format>
        <dc:type
           rdf:resource="http://purl.org/dc/dcmitype/StillImage" />
        <dc:title></dc:title>
      </cc:Work>
    </rdf:RDF>
  </metadata>
  <g
     inkscape:label="Layer 1"
     inkscape:groupmode="layer"
     id="layer1"
     transform="translate(-4.1288781,-90.272606)">
    <g
       id="Background"
       transform="matrix(1.1908774,0,0,1.1908774,-191.68164,-8.1850307)">
      <g
         clip-path="url(#Clip0)"
         id="Group1">
        <path
           id="path2994"
           transform="translate(182.204,97.954)"
           d="M 64.75,0.166 C 23.3223,0.1416 0.0869,21.5127 0,65.166 l 0,450.251 c 0.0869,40.725 20.9775,62.11 62.25,62 l 452,0 c 41.356,0.11 62.279,-20.21 62.25,-62 l 0,-450.251 c 0.029,-42.5889 -20.894,-65.0244 -63.5,-65 0,0 -448.4854,-0.166 -448.25,0 z"
           style="fill:#161413;fill-rule:nonzero;stroke:#161413;stroke-width:3.40799999;stroke-linecap:butt;stroke-linejoin:miter;stroke-dasharray:none"
           inkscape:connector-curvature="0" />
        <path
           id="path2996"
           transform="translate(309.704,360.048)"
           d="m 39.25,78.073 c 21.471,0.102 38.97,-17.397 39,-39 C 78.22,17.502 60.721,0 39.25,0.073 17.547,0 0.047,17.502 0,39.073 c 0.047,21.603 17.547,39.102 39.25,39 z"
           style="fill:#ffffff;fill-rule:nonzero;stroke:none"
           inkscape:connector-curvature="0" />
        <path
           id="path2998"
           transform="translate(433.205,388.055)"
           d="m 0,0.066 156.25,0 c 22.937,-0.066 36.439,14.687 36.5,34.5 l 0,56.5 -192.75,0 0,-91 z"
           style="fill:#ffffff;fill-rule:nonzero;stroke:none"
           inkscape:connector-curvature="0" />
        <path
           id="path3000"
           transform="translate(301.594,380.067)"
           d="m 89.11,28.303 0,33.75 -60,0 c -29.063,0.192 -29.11,37.469 0,37.5 l 78.75,0 c 11.437,-0.031 18.637,-9.313 18.75,-19.75 l 0,-51.5 C 126.497,0 89.116,0 89.11,28.303 z"
           style="fill:#ffffff;fill-rule:nonzero;stroke:none"
           inkscape:connector-curvature="0" />
        <path
           id="path3002"
           transform="translate(259.588,324.687)"
           d="M 42.6167,30.684 C 42.7007,0 0,0 0.1162,30.684 l 0,247 43.5005,0 0,-63.75 332.2503,0 0,63.25 42.5,0 0,-190.75 c 0.103,-32.433 -43.072,-32.433 -43,0 l 0,76.25 -332.7503,0 0,-132 z"
           style="fill:#ffffff;fill-rule:nonzero;stroke:none"
           inkscape:connector-curvature="0" />
        <path
           id="path3004"
           transform="translate(371.118,159.12)"
           d="m 96.837,195.75 c 53.587,0.089 96.975,-43.732 97,-97.7495 C 193.812,43.9115 150.424,0.0898 96.837,0 43.388,0.0898 0,43.9115 0.087,98.0005 0,152.018 43.388,195.839 96.837,195.75 z"
           style="fill:#ffffff;fill-rule:nonzero;stroke:none"
           inkscape:connector-curvature="0" />
        <path
           id="path3006"
           transform="translate(393.454,181.774)"
           d="m 74.5,150.597 c 41.25,0.024 74.635,-33.694 74.75,-75.25 C 149.135,33.718 115.75,0 74.5,0.097 33.388,0 0.003,33.718 0,75.347 c 0.003,41.556 33.388,75.274 74.5,75.25 z"
           style="fill:#161413;fill-rule:nonzero;stroke:none"
           inkscape:connector-curvature="0" />
        <path
           id="path3008"
           transform="translate(426.353,190.653)"
           d="m 31.601,100.968 21.75,0 0,-17 c 0.116,-4.61 2.261,-8.959 8,-12.75 5.745,-3.74 21.772,-11.38 21.75,-31.5 C 83.123,19.665 66.292,5.857 52.101,2.968 37.997,0 22.67,1.926 11.851,13.968 2.052,24.514 0,32.955 0.101,51.468 l 21.75,0 0,-4.25 c -0.026,-9.892 1.122,-20.368 15.25,-23.25 7.787,-1.545 15.04,0.881 19.25,5 5.013,4.902 5.053,15.745 -2.75,21.25 l -12.25,8.25 c -7.267,4.617 -9.728,9.742 -9.75,17.25 l 0,25.25 z"
           style="fill:#ffffff;fill-rule:nonzero;stroke:none"
           inkscape:connector-curvature="0" />
        <path
           id="path3010"
           transform="translate(457.955,300.12)"
           d="M 0,22.5 0,0 l 22,0 0,22.5 -22,0 z"
           style="fill:#ffffff;fill-rule:nonzero;stroke:none"
           inkscape:connector-curvature="0" />
      </g>
    </g>
  </g>
</svg>
