<?xml version="1.0" encoding="utf-8"?>
<!-- Generator: Adobe Illustrator 21.1.0, SVG Export Plug-In . SVG Version: 6.00 Build 0)  -->
<svg version="1.1" xmlns="http://www.w3.org/2000/svg" xmlns:xlink="http://www.w3.org/1999/xlink" x="0px" y="0px" width="1058px"
	 height="280px" viewBox="0 0 1058 280" style="enable-background:new 0 0 1058 280;" xml:space="preserve">
<style type="text/css">
	.st0{fill:#7BC143;}
	.st1{fill:#0071BD;}
</style>
<g id="Layer_1">
	<g>
		<path class="st0" d="M429.2,260.8l46.8-245h51.3l-46.8,245H429.2z"/>
		<path class="st0" d="M667.3,250.5c-21,10.9-48.6,14.4-67.3,14.4c-50,0-77.3-26.9-77.3-73.4c0-51.3,40.4-102,102.9-102
			c35.4,0,63,17.8,63,51.5c0,41.3-43.1,56.3-117,54.3c0.2,4.8,2.3,11.9,5.7,16.7c7.5,8.9,19.8,13,35.1,13c19.2,0,37-4.3,50.9-11.2
			L667.3,250.5z M639.5,139.4c0-7.5-7.8-13.2-20.1-13.2c-26,0-39.9,19.8-42.7,32.2c43.3,0.2,63-3.6,63-18.5v-0.5H639.5z"/>
	</g>
	<g>
		<path class="st1" d="M49.4,260.8l-30.1-242h53.4l10.7,115.2c2.5,25.5,4.3,49.3,5.7,74.4h0.7c8.9-23.7,20.5-49.5,32.4-74.6
			l54.3-115h57.7l-125,242H49.4z"/>
		<path class="st1" d="M237.8,198l-28.7,62.7h-55l117.7-242h66.4l28.5,242h-54.3l-5-62.7H237.8z M305.3,158.6l-4.6-52
			c-1.1-13.2-2.5-32.6-3.6-47.4h-0.7c-6.2,14.8-13,33.3-19.4,47.4l-24,52H305.3z"/>
	</g>
	<g>
		<path class="st0" d="M904.1,260.8l24-127.3h-21.4l7.5-39.9h21.4l1.8-9.1c3.4-19.8,11.4-41.7,29.2-56.1
			c14.6-12.3,33.5-16.4,49.7-16.4c11.9,0,21.2,2.1,26.7,4.8l-8.2,41.1c-4.6-2.1-10-3.2-16.4-3.2c-16.4,0-26.2,13-29.7,30.3l-1.8,8.4
			h33.1l-7.5,39.9h-32.8l-24.2,127.5H904.1z"/>
	</g>
</g>
<g id="Layer_4">
</g>
<g id="Layer_2">
	<path class="st0" d="M749.6,215.1c0,0,0,0.1-0.1,0.1c0.2,0.2,0.5,0.5,0.9,0.8c-0.1-0.1-0.1-0.1-0.2-0.2
		C750,215.7,749.8,215.4,749.6,215.1z"/>
	<path class="st0" d="M888.3,97.9c-15.1-4.5-38.3-8.2-59.6-8.2c-88.6,0-128.7,60.3-128.7,116.9c0,35,22.1,58.3,54.4,58.3
		c21,0,43.8-9.3,60.3-37h1.1c-1.1,12-2.2,23.3-2.6,33.2h48.9c-0.7-20.9,2.6-53.8,7-75.4L888.3,97.9z M811.7,210.4
		c-18.2,16.8-40.7,18.5-55.3,9.8c2.6-5.3,5.8-11.1,9.3-16.9c8.7,0.9,15.6,1.5,24.2,0.8c15.4-1.3,25.6-11.6,25.6-11.6
		s-11.3,6.1-24.7,6.8c-10.8,0.6-15.3-0.3-21.8-1.5c5.6-9.2,11.7-18.1,17-25c0.6-0.8,1.3-1.6,2-2.5c5.7,0.6,9.6,1.1,16.7,0.8
		c13.6-0.5,21.9-9,21.9-9s-9.8,5.5-22.2,5.2c-8.1-0.2-10-0.9-12.5-1.5c16.7-20.4,43.3-40.5,48.4-44.7c0.1-0.1,0-0.1-0.1-0.1
		c-5.5,3.5-33.3,20-50.8,40.4l0,0c0-2.8,0.1-6.4,0.8-9.5c2.7-13.1,6.5-17.9,6.5-17.9s-7.8,5.2-10.8,18.9c-1.2,5.8-1.3,10.1-1.2,13.6
		c-0.4,0.5-0.9,1-1.3,1.5c-5.2,6.1-12.5,15.1-19.6,24.7c-1-4.1-1.4-7.8-1.7-16.2c-0.5-12.3,4.9-23.8,4.9-23.8s-8.4,7.8-9.6,25.7
		c-0.6,9.2,0.9,16.7,2,20.3c-3.7,5.2-7.1,10.5-10.1,15.5c-12.9-14.8-13.7-40.3,7-59.4c21.1-19.5,65.5-41.2,91.9-37.8
		C825.5,136,832.8,190.9,811.7,210.4z"/>
</g>
<g id="Layer_3">
</g>
</svg>
