<?xml version="1.0" encoding="UTF-8" standalone="no"?>
<!-- Created with Inkscape (http://www.inkscape.org/) -->

<svg
   xmlns:dc="http://purl.org/dc/elements/1.1/"
   xmlns:cc="http://creativecommons.org/ns#"
   xmlns:rdf="http://www.w3.org/1999/02/22-rdf-syntax-ns#"
   xmlns:svg="http://www.w3.org/2000/svg"
   xmlns="http://www.w3.org/2000/svg"
   xmlns:sodipodi="http://sodipodi.sourceforge.net/DTD/sodipodi-0.dtd"
   xmlns:inkscape="http://www.inkscape.org/namespaces/inkscape"
   width="28.603628mm"
   height="28.762911mm"
   viewBox="0 0 28.603628 28.762911"
   version="1.1"
   id="svg91"
   inkscape:version="0.92.2 (5c3e80d, 2017-08-06)"
   sodipodi:docname="LEAF_thumbprint.svg">
  <defs
     id="defs85" />
  <sodipodi:namedview
     id="base"
     pagecolor="#ffffff"
     bordercolor="#666666"
     borderopacity="1.0"
     inkscape:pageopacity="0.0"
     inkscape:pageshadow="2"
     inkscape:zoom="9.95"
     inkscape:cx="41.5198"
     inkscape:cy="20.755145"
     inkscape:document-units="mm"
     inkscape:current-layer="layer1"
     showgrid="false"
     inkscape:window-width="1366"
     inkscape:window-height="706"
     inkscape:window-x="-8"
     inkscape:window-y="-8"
     inkscape:window-maximized="1"
     fit-margin-top="0"
     fit-margin-left="0"
     fit-margin-right="0"
     fit-margin-bottom="0" />
  <metadata
     id="metadata88">
    <rdf:RDF>
      <cc:Work
         rdf:about="">
        <dc:format>image/svg+xml</dc:format>
        <dc:type
           rdf:resource="http://purl.org/dc/dcmitype/StillImage" />
        <dc:title />
      </cc:Work>
    </rdf:RDF>
  </metadata>
  <g
     inkscape:label="Layer 1"
     inkscape:groupmode="layer"
     id="layer1"
     transform="translate(-88.080923,-63.306983)">
    <path
       id="path32"
       d="m 107.0273,88.112873 c -4.81542,4.445 -10.768544,4.89479 -14.631461,2.59292 0.687917,-1.40229 1.534584,-2.93688 2.460625,-4.47146 2.301875,0.23813 4.1275,0.39688 6.402916,0.21167 4.07458,-0.34396 6.77333,-3.06917 6.77333,-3.06917 0,0 -2.98979,1.61396 -6.5352,1.79917 -2.857504,0.15875 -4.048129,-0.0794 -5.767921,-0.39688 1.481667,-2.43416 3.095625,-4.78896 4.497921,-6.61458 0.15875,-0.21167 0.34395,-0.42333 0.52916,-0.66146 1.50813,0.15875 2.54,0.29104 4.41854,0.21167 3.59834,-0.13229 5.79438,-2.38125 5.79438,-2.38125 0,0 -2.59292,1.45521 -5.87375,1.37583 -2.14313,-0.0529 -2.64583,-0.23812 -3.30729,-0.39687 4.41854,-5.3975 11.45646,-10.71563 12.80583,-11.82688 0.0265,-0.0265 0,-0.0265 -0.0265,-0.0265 -1.45521,0.92604 -8.81062,5.29167 -13.44083,10.68917 v 0 c 0,-0.74083 0.0265,-1.69333 0.21167,-2.51354 0.71437,-3.46604 1.71979,-4.73604 1.71979,-4.73604 0,0 -2.06375,1.37583 -2.8575,5.00062 -0.317503,1.53458 -0.343961,2.67229 -0.317503,3.59833 -0.105833,0.1323 -0.238125,0.26459 -0.343958,0.39688 -1.375833,1.61396 -3.307291,3.99521 -5.185833,6.53521 -0.264583,-1.08479 -0.370417,-2.06375 -0.449792,-4.28625 -0.132291,-3.25438 1.296459,-6.29709 1.296459,-6.29709 0,0 -2.2225,2.06375 -2.54,6.7998 -0.15875,2.43416 0.238125,4.41854 0.529166,5.37104 -0.978958,1.37583 -1.878541,2.77812 -2.672291,4.10104 -3.413125,-3.91583 -3.624792,-10.66271 1.852083,-15.71625 5.582708,-5.15938 17.330209,-10.900834 24.315209,-10.00125 -6.00604,5.02708 -4.07458,19.55271 -9.65729,24.71208 z"
       class="st0"
       inkscape:connector-curvature="0"
       style="fill:#7bc143;stroke-width:0.26458332"
       sodipodi:nodetypes="ccccccccccccccccccccccccccccccc" />
    <path
       style="fill:none;fill-opacity:1;stroke:#ffffff;stroke-width:0.1;stroke-linecap:butt;stroke-linejoin:miter;stroke-miterlimit:4;stroke-dasharray:none;stroke-opacity:1"
       d="m 90.517257,89.118251 c 0.59453,0.814151 1.234744,1.217152 1.878581,1.58754"
       id="path101"
       inkscape:connector-curvature="0"
       sodipodi:nodetypes="cc" />
    <path
       style="fill:#ffffff;fill-opacity:1;stroke:none;stroke-width:0.07604683;stroke-miterlimit:4;stroke-dasharray:none;stroke-opacity:1"
       d="m 14.912225,102.32943 c -1.36503,-0.90754 -3.446552,-2.705695 -4.668695,-4.033129 L 9.4099156,97.390868 10.940466,94.875777 c 0.841803,-1.383299 3.085092,-4.840189 4.985087,-7.681973 l 3.454536,-5.166886 -0.469508,-1.85164 c -0.536901,-2.117422 -0.98022,-4.630291 -1.32895,-7.532901 -0.363218,-3.023189 -0.301504,-10.928917 0.109946,-14.084507 0.952962,-7.308684 3.316806,-14.153133 6.534294,-18.919877 1.381541,-2.046769 2.360256,-3.245368 2.130618,-2.609298 -2.817209,7.80336 -3.840721,12.096519 -4.322602,18.131312 -0.224357,2.809712 -0.0344,9.023386 0.420653,13.760036 0.225723,2.349543 0.927137,6.551 1.164456,6.975064 0.108699,0.194236 0.440441,-0.121658 1.141589,-1.08705 3.444871,-4.743153 12.029931,-15.578664 17.076519,-21.552883 l 2.768511,-3.277399 0.08899,-3.154621 c 0.155634,-5.517151 0.971408,-10.514026 2.453078,-15.025847 0.900634,-2.742513 3.017487,-6.976896 4.556409,-9.11427 1.256585,-1.745244 3.856431,-4.618315 4.025829,-4.448916 0.05748,0.05748 -0.247724,0.778582 -0.678227,1.602456 -1.700856,3.255012 -3.325516,8.005078 -4.538236,13.268577 -0.843235,3.659843 -1.053551,5.194269 -1.213453,8.853118 l -0.127503,2.917505 1.957572,-2.112676 C 60.575659,32.569111 72.230539,22.869032 87.032879,12.88205 92.141681,9.4351949 98.083617,5.6582385 98.205571,5.7801931 c 0.05285,0.05285 -0.69563,0.7220842 -1.66329,1.4871861 C 83.35184,17.696696 70.819778,28.737582 62.384991,37.360331 c -5.685507,5.812203 -10.741426,11.544352 -10.44238,11.839046 0.271584,0.267634 3.910779,0.959332 6.418235,1.219909 3.531538,0.367 10.054499,0.322129 12.874455,-0.08856 3.458423,-0.503678 8.079085,-1.735525 11.299743,-3.012461 1.531541,-0.607229 2.816802,-1.071873 2.856136,-1.032541 0.03933,0.03933 -0.665668,0.618103 -1.566668,1.286153 -4.249877,3.151093 -9.456422,5.365664 -15.000889,6.380535 -2.894585,0.529833 -12.458107,0.533381 -17.357837,0.0064 -2.935119,-0.315656 -3.525859,-0.331276 -3.805107,-0.100604 -0.406436,0.335735 -6.037444,7.875415 -8.243466,11.037652 -4.297232,6.159894 -10.649935,16.046942 -10.443345,16.253531 0.188457,0.188459 4.940067,1.009717 7.882795,1.362445 3.323799,0.398406 11.710304,0.448877 15.56857,0.09369 6.342116,-0.583841 13.046551,-2.317255 19.436607,-5.025284 1.303821,-0.552543 2.404288,-0.970921 2.445481,-0.929728 0.04119,0.04119 -0.677798,0.661284 -1.59776,1.37798 -6.295121,4.904213 -13.426201,8.004199 -21.0099,9.133316 -3.714935,0.553109 -15.136792,0.502344 -21.094949,-0.09375 -2.428852,-0.242998 -4.568453,-0.441817 -4.754669,-0.441817 -0.449715,0 -4.098563,6.22761 -7.869175,13.430577 -0.883438,1.68763 -1.666392,3.06813 -1.739897,3.06777 -0.0735,-4e-4 -0.671441,-0.35819 -1.328746,-0.7952 z"
       id="path1985"
       inkscape:connector-curvature="0"
       transform="matrix(0.26458333,0,0,0.26458333,88.080923,63.306983)" />
  </g>
</svg>
